<svg id="visual" viewBox="0 0 900 600" width="900" height="600" xmlns="http://www.w3.org/2000/svg" xmlns:xlink="http://www.w3.org/1999/xlink" version="1.1"><rect x="0" y="0" width="900" height="600" fill="#ffffff"></rect><path d="M642 600L637.3 583.3C632.7 566.7 623.3 533.3 632 500C640.7 466.7 667.3 433.3 683 400C698.7 366.7 703.3 333.3 705.8 300C708.3 266.7 708.7 233.3 689 200C669.3 166.7 629.7 133.3 618 100C606.3 66.7 622.7 33.3 630.8 16.7L639 0L900 0L900 16.7C900 33.3 900 66.7 900 100C900 133.3 900 166.7 900 200C900 233.3 900 266.7 900 300C900 333.3 900 366.7 900 400C900 433.3 900 466.7 900 500C900 533.3 900 566.7 900 583.3L900 600Z" fill="#900000" stroke-linecap="round" stroke-linejoin="miter"></path></svg>